<?xml version="1.0" encoding="utf-8"?>
<!-- Generator: Adobe Illustrator 15.0.0, SVG Export Plug-In . SVG Version: 6.00 Build 0)  -->
<!DOCTYPE svg PUBLIC "-//W3C//DTD SVG 1.1//EN" "http://www.w3.org/Graphics/SVG/1.1/DTD/svg11.dtd">
<svg version="1.1" id="Layer_1" xmlns="http://www.w3.org/2000/svg" xmlns:xlink="http://www.w3.org/1999/xlink" x="0px" y="0px"
	 width="101.167px" height="100px" viewBox="0 0 101.167 100" enable-background="new 0 0 101.167 100" xml:space="preserve">
<g>
	<circle fill="#34495E" cx="50.583" cy="50" r="42.752"/>
	<g>
		<path fill="#FFFFFF" d="M42.886,80.373l1.383-7.295c-4.685-0.23-9.677-2.305-11.98-4.07l3.533-8.371
			c2.918,2.15,6.834,3.84,12.133,3.84c4.608,0,7.91-2.073,7.91-5.375c0-2.611-1.766-4.455-6.527-6.682
			c-5.913-3.072-11.136-6.912-11.136-13.209c0-7.68,6.144-13.67,15.513-14.668l1.383-6.835h7.219l-1.305,6.758
			c4.301,0.23,7.986,1.536,9.983,2.841l-3.532,8.217c-1.92-1.152-5.453-2.765-10.445-2.765c-4.377,0-6.835,2.227-6.835,4.838
			c0,2.381,2.073,3.993,7.68,6.758c6.067,2.995,10.061,7.065,10.061,13.132c0,9.369-7.603,14.515-16.358,15.513l-1.382,7.372H42.886
			z"/>
	</g>
</g>
</svg>
