<svg xmlns="http://www.w3.org/2000/svg" xmlns:xlink="http://www.w3.org/1999/xlink" version="1.1" id="Layer_1" x="0px" y="0px" width="100px" height="100px" viewBox="0 0 100 100" enable-background="new 0 0 100 100" xml:space="preserve">
<g>
	<path fill="#000000" d="M91.211,45.996c-2.64-5.991-8.577-9.862-15.126-9.862c-2.297,0-4.535,0.474-6.653,1.406   c-3.461,1.525-6.135,4.102-7.82,7.189l-5.087-2.258l-2.41-2.347l23.06-4.986c0.455-0.099,0.879-0.262,1.266-0.476   c1.527-0.437,2.886-1.462,3.704-2.969l0.34-0.629c1.615-2.978,0.512-6.7-2.466-8.315l-20.279-11c-2.978-1.615-6.7-0.51-8.315,2.467   l-0.341,0.817C50.771,15.605,50.564,16,50.448,17h-1.752c-0.339,0-0.696-0.09-1.059-0.018L47.546,17H22.228   C20.694,17,19,17.868,19,19.402v0.423C19,21.36,20.694,23,22.228,23h0.594c0.164,0,0.334,0.122,0.517,0.284   c1.852,1.632,4.402,2.333,4.51,2.366c0.028,0.008,0.057-0.042,0.085-0.037l2.098,3.233l-1.824,6.057   c-0.293-0.135-0.626-0.166-0.938-0.07c-0.37,0.112-0.672,0.378-0.827,0.732l-0.565,1.294c-1.542-0.472-3.166-0.725-4.83-0.725   c-2.298,0-4.536,0.473-6.654,1.406C6.06,41.213,2.266,50.983,5.939,59.319c2.64,5.991,8.577,9.862,15.125,9.862   c2.297,0,4.536-0.473,6.654-1.405c8.335-3.674,12.129-13.443,8.456-21.78c-1.296-2.943-3.392-5.37-5.961-7.082l0.523-0.97   c0.28-0.519,0.178-1.148-0.22-1.552l0.269-0.895l23.385,17.357c0.206,0.151,0.45,0.24,0.704,0.257l3.336,0.211l0.987,0.962   c0.157,0.152,0.326,0.283,0.503,0.398c0.191,1.563,0.609,3.123,1.276,4.637c2.64,5.991,8.577,9.862,15.125,9.862   c2.297,0,4.536-0.473,6.654-1.405C91.09,64.103,94.884,54.333,91.211,45.996z M32.951,47.417c2.89,6.559-0.094,14.245-6.653,17.136   c-1.667,0.734-3.428,1.106-5.233,1.106c-5.153,0-9.825-3.046-11.902-7.76c-2.889-6.559,0.095-14.246,6.654-17.136   c1.667-0.734,3.428-1.106,5.233-1.106c1.169,0,2.312,0.164,3.408,0.461L19.59,51.276c-0.232,0.531-0.086,1.133,0.319,1.503   c0,0.479,0.262,0.942,0.716,1.176c0.193,0.1,0.4,0.147,0.604,0.147c0.471,0,0.925-0.252,1.164-0.694l6.136-11.375   C30.427,43.368,31.977,45.206,32.951,47.417z M64.678,51.083c-0.146-0.562-0.431-1.095-0.877-1.529l-0.257-0.25   c0.065-0.245,0.137-0.489,0.217-0.73l6.439,2.858L64.678,51.083z M30.116,23c0.004,0,0.002-0.147,0.008-0.122l0.006-0.072   c0.048,0.243,0.14,0.415,0.249,0.624c-0.953,0.493-1.923,0.935-2.302,1.028C27.596,24.291,26.137,24,24.857,23H30.116z    M33.015,28.078c0.209-0.698-0.187-1.435-0.885-1.645c-0.29-0.087-0.585-0.064-0.848,0.036l-1.924-1.23   c0.567-0.189,1.27-0.47,1.953-0.859c0.523,0.316,1.158,0.651,1.805,0.523L43.67,23h9.042c0.261,0,0.537,0.194,0.837,0.356   l9.91,5.277l-16.57,3.533c-2.148,0.464-3.621,2.32-3.663,4.426l-11.261-5.011L33.015,28.078z M36.576,36.506l8.011,3.556   l10.334,10.06L36.576,36.506z M81.334,64.553c-1.667,0.734-3.428,1.106-5.233,1.106c-5.153,0-9.824-3.046-11.902-7.76   c-0.462-1.05-0.772-2.128-0.943-3.211c0.206-0.133,0.404-0.284,0.583-0.468l0.024-0.025c0.149-0.153,0.278-0.319,0.392-0.492   l11.468,0.725c0.028,0.001,0.056,0.002,0.083,0.002c0.491,0,0.945-0.273,1.173-0.714l0.268-0.516   c0.167-0.324,0.193-0.701,0.073-1.045c-0.121-0.344-0.378-0.622-0.711-0.77l-11.766-5.223c1.333-2.314,3.384-4.242,6.01-5.4   c1.668-0.734,3.429-1.106,5.233-1.106c5.153,0,9.825,3.046,11.902,7.76C90.877,53.976,87.893,61.662,81.334,64.553z"/>
	<path fill="#000000" d="M46.988,11.089l-1.789-1.192c-0.105-0.1-0.276-0.113-0.396-0.041l-4.878,2.948l0.186,0.306   c1.932,3.196,6.092,4.208,9.289,2.276c1.953-1.181,3.102-3.197,3.252-5.33l-1.836,1.11C49.61,11.895,48.125,11.818,46.988,11.089z"/>
	<path fill="#000000" d="M43.912,8.378c0.713-0.431,1.581-0.376,2.251,0.078l1.771,1.203c0.583,0.389,1.37,0.424,1.998,0.044   l3.961-2.393c-0.189-0.697-0.501-1.369-0.882-1.997c-2.383-3.943-7.482-5.2-11.408-2.829c-3.315,2.004-4.753,5.96-3.675,9.509   L43.912,8.378z"/>
</g>
<ellipse fill="#000000" cx="52.938" cy="95.302" rx="16.389" ry="2.802"/>
</svg>