<svg xmlns="http://www.w3.org/2000/svg" xmlns:xlink="http://www.w3.org/1999/xlink" version="1.1" id="Layer_1" x="0px" y="0px" width="100.0px" height="100px" viewBox="0 0 144 144" enable-background="new 0 0 144 144" xml:space="preserve">
<path fill="#000000" d="M55.479,57.993h-1.102c-2.282,0-4.15,1.868-4.15,4.136v1.108c0,2.221,1.773,4.036,3.972,4.132v21.575h-0.585  c-1.258,0-2.281,1.023-2.281,2.282h7.06c0-1.259-1.027-2.282-2.289-2.282h-0.449V67.37c2.2-0.095,3.961-1.911,3.961-4.133v-1.108  C59.615,59.861,57.761,57.993,55.479,57.993z M91.906,52.884h-7.455c0-1.826-1.475-3.302-3.305-3.302h-3.598  c-1.828,0-3.305,1.476-3.305,3.302h-7.349c-2.51,0-4.648,2.046-4.648,4.553v26.316c0,1.69,1.301,3.062,2.98,3.062h0.816v1.572  c0,1.69,1.358,3.056,3.062,3.056c1.68,0,3.049-1.365,3.049-3.056v-1.572h14.279v1.572c0,1.69,1.365,3.056,3.057,3.056  c1.689,0,3.062-1.365,3.062-3.056v-1.572h0.816c1.68,0,3.072-1.372,3.072-3.062V57.437C96.441,54.93,94.414,52.884,91.906,52.884z   M64.506,57.44c0-1.312,1.07-2.382,2.393-2.382h25.005c1.311,0,2.381,1.069,2.381,2.382v0.338c0,1.284-1.094,2.368-2.381,2.368  H66.899c-1.322,0-2.393-1.06-2.393-2.368V57.44z M66.953,83.222c-1.501,0-2.721-1.212-2.721-2.721c0-1.501,1.22-2.72,2.721-2.72  S69.68,79,69.68,80.501C69.68,82.01,68.454,83.222,66.953,83.222z M66.899,73.182c-1.322,0-2.393-1.062-2.393-2.371v-6.593  c0-1.305,1.07-2.374,2.393-2.374h25.005c1.311,0,2.381,1.069,2.381,2.374v6.593c0,1.283-1.094,2.371-2.381,2.371H66.899z   M91.736,83.222c-1.512,0-2.732-1.212-2.732-2.721c0-1.501,1.221-2.72,2.732-2.72c1.5,0,2.721,1.219,2.721,2.72  C94.457,82.01,93.236,83.222,91.736,83.222z"/>
</svg>