<?xml version="1.0" encoding="utf-8"?>
<!-- Generator: Adobe Illustrator 15.0.0, SVG Export Plug-In . SVG Version: 6.00 Build 0)  -->
<!DOCTYPE svg PUBLIC "-//W3C//DTD SVG 1.1//EN" "http://www.w3.org/Graphics/SVG/1.1/DTD/svg11.dtd">
<svg version="1.1" id="Layer_1" xmlns="http://www.w3.org/2000/svg" xmlns:xlink="http://www.w3.org/1999/xlink" x="0px" y="0px"
	 width="101.167px" height="100px" viewBox="0 0 101.167 100" enable-background="new 0 0 101.167 100" xml:space="preserve">
<circle fill="#1ABC9C" cx="-442.334" cy="-160" r="42.752"/>
<circle fill="#E74C3C" cx="-322.334" cy="-160" r="42.752"/>
<circle fill="#34495E" cx="-202.334" cy="-160" r="42.752"/>
<g>
	<path fill="#FFFFFF" d="M-421.984-153.294c-9.246,11.1-18.841,4.796-21.973,2.213c2.414-2.638,3.523-4.071,7.715-7.525
		c4.333,1.771,12.087-1.591,12.087-1.591c-5.217,1.367-9.205,0.592-10.621,0.217c0.304-0.237,5.45-3.962,7.007-6.117
		c4.308,0.133,7.866-3.567,7.866-3.567c-0.116-0.1-2.295,1.571-6.416,1.771c4.266-6.267,4.075-12.033,4.075-12.033
		s-1.575,5.263-5.583,11.033c-0.821-4.095,0.225-6.883,0.107-6.975c0,0-2.791,4.6-1.504,8.829c-2.191,2.504-5.646,4.667-6.92,5.637
		c-0.099-0.263-1.433-4.633-0.138-11.087c0,0-3.512,8.117-1.312,12.325c-2.691,2.071-3.413,2.579-7.908,7.604
		c-10.179-7.621-1.439-21.25,6.183-24.425c7.843-3.27,11.109-2.611,18.297-14.374C-413.151-179.703-414.441-162.344-421.984-153.294
		z"/>
	<path fill="#FFFFFF" d="M-465.427-154.478c4.631,2.117,7.841,4.992,10.047,7.742c0.027-0.08,0.061-0.146,0.086-0.237
		c4.191-15.087-18.852-12.987-18.852-12.987s3.184,4.899,4.958,10.241c2.052,6.192,10.439,11.337,13.454,3.983
		C-457.91-148.666-461.023-151.869-465.427-154.478z"/>
	<path fill="#FFFFFF" d="M-443.957-151.082c-0.027-0.034-1.592-1.434-1.566-1.467c-3.951,4.35-5.49,8.066-5.865,12.804
		c-0.598-1.629-1.793-4.238-3.992-6.992c-0.104,0.362-0.225,0.688-0.354,1c2.342,3.153,3.248,7.45,3.781,8.858
		c0,3.934,0.432,5.9,0.777,9.184c0,0,2.117,1.25,2.707-1.083C-449.665-130.753-450.838-144.349-443.957-151.082z"/>
</g>
<g id="Your_Icon">
	<g id="Ellipse_2_copy_3">
		<g>
			<ellipse fill="#FFFFFF" cx="-307.517" cy="-187.999" rx="6.298" ry="6.309"/>
		</g>
	</g>
	<g id="Rounded_Rectangle_17">
		<g>
			<path fill="#FFFFFF" d="M-302.255-173.757l-8.069-7.076c-1.082-0.948-2.724-0.84-3.672,0.24
				c-0.947,1.081-0.841,2.724,0.241,3.671l8.068,7.076c1.082,0.948,2.725,0.839,3.672-0.241
				C-301.066-171.166-301.175-172.809-302.255-173.757z"/>
		</g>
	</g>
	<g id="Rounded_Rectangle_17_copy_2">
		<g>
			<path fill="#FFFFFF" d="M-316.173-183.313l-10.754,0.832c-1.44,0.111-2.519,1.369-2.411,2.809
				c0.109,1.44,1.364,2.518,2.804,2.407l10.754-0.831c1.44-0.112,2.519-1.369,2.41-2.81
				C-313.478-182.347-314.734-183.425-316.173-183.313z"/>
		</g>
	</g>
	<g id="Rounded_Rectangle_17_copy">
		<g>
			<path fill="#FFFFFF" d="M-293.841-181.384c-1.031-1-2.68-0.974-3.68,0.058l-7.467,7.707c-1,1.032-0.974,2.678,0.058,3.678
				s2.679,0.974,3.679-0.057l7.468-7.708C-292.783-178.737-292.81-180.384-293.841-181.384z"/>
		</g>
	</g>
	<g id="Rounded_Rectangle_17_copy_3">
		<g>
			<path fill="#FFFFFF" d="M-325.875-181.546c-1.032-1-2.679-0.974-3.679,0.058l-7.467,7.708c-1,1.032-0.974,2.678,0.058,3.678
				c1.032,1,2.679,0.974,3.679-0.058l7.468-7.708C-324.816-178.899-324.842-180.546-325.875-181.546z"/>
		</g>
	</g>
	<g id="Rounded_Rectangle_14_copy">
		<g>
			<path fill="#FFFFFF" d="M-311.548-181.79l-1.081-0.65c-2.236-1.347-5.138-0.622-6.481,1.618l-11.191,18.658
				c-1.344,2.24-0.62,5.147,1.616,6.492l1.079,0.649c2.236,1.348,5.138,0.622,6.482-1.617l11.192-18.657
				C-308.59-177.536-309.312-180.443-311.548-181.79z"/>
		</g>
	</g>
	<g id="Rounded_Rectangle_15">
		<g>
			<path fill="#FFFFFF" d="M-312.28-151.599l-9.607-9.782c-1.585-1.615-4.177-1.636-5.789-0.048
				c-1.611,1.588-1.633,4.186-0.047,5.799l9.606,9.783c1.584,1.615,4.177,1.635,5.788,0.047
				C-310.717-147.388-310.695-149.986-312.28-151.599z"/>
		</g>
	</g>
	<g id="Rounded_Rectangle_15_copy">
		<g>
			<path fill="#FFFFFF" d="M-323.534-165.142c-1.891-1.242-4.416-0.706-5.639,1.197l-7.414,11.53
				c-1.223,1.904-0.683,4.453,1.208,5.695c1.891,1.241,4.416,0.705,5.639-1.199l7.414-11.529
				C-321.103-161.351-321.643-163.901-323.534-165.142z"/>
		</g>
	</g>
	<g id="Rounded_Rectangle_16">
		<g>
			<path fill="#FFFFFF" d="M-314.445-151.666c-1.958-0.374-3.816,1.104-4.149,3.297l-2.727,17.969
				c-0.334,2.195,0.983,4.277,2.941,4.65c1.958,0.373,3.816-1.104,4.149-3.297l2.727-17.969
				C-311.17-149.21-312.488-151.292-314.445-151.666z"/>
		</g>
	</g>
	<g id="Rounded_Rectangle_16_copy">
		<g>
			<path fill="#FFFFFF" d="M-333.515-151.599l-17.8-3.277c-2.174-0.4-4.312,0.726-4.774,2.515c-0.462,1.79,0.925,3.564,3.099,3.965
				l17.8,3.277c2.174,0.4,4.312-0.726,4.774-2.516C-329.954-149.425-331.341-151.199-333.515-151.599z"/>
		</g>
	</g>
</g>
<g>
	<path fill="#FFFFFF" d="M-210.03-129.626l1.382-7.295c-4.685-0.23-9.677-2.304-11.98-4.07l3.533-8.371
		c2.918,2.15,6.835,3.84,12.134,3.84c4.608,0,7.91-2.073,7.91-5.375c0-2.611-1.766-4.455-6.528-6.682
		c-5.913-3.072-11.136-6.912-11.136-13.209c0-7.68,6.144-13.67,15.513-14.668l1.382-6.835h7.219l-1.306,6.758
		c4.301,0.23,7.987,1.536,9.984,2.841l-3.533,8.217c-1.92-1.152-5.453-2.765-10.445-2.765c-4.377,0-6.835,2.227-6.835,4.838
		c0,2.381,2.074,3.993,7.68,6.758c6.067,2.995,10.061,7.065,10.061,13.132c0,9.369-7.603,14.515-16.358,15.513l-1.382,7.373H-210.03
		z"/>
</g>
</svg>
