<?xml version="1.0" encoding="utf-8"?>
<!-- Generator: Adobe Illustrator 15.0.0, SVG Export Plug-In . SVG Version: 6.00 Build 0)  -->
<!DOCTYPE svg PUBLIC "-//W3C//DTD SVG 1.1//EN" "http://www.w3.org/Graphics/SVG/1.1/DTD/svg11.dtd">
<svg version="1.1" id="Layer_1" xmlns="http://www.w3.org/2000/svg" xmlns:xlink="http://www.w3.org/1999/xlink" x="0px" y="0px"
	 width="101.167px" height="100px" viewBox="0 0 101.167 100" enable-background="new 0 0 101.167 100" xml:space="preserve">
<g>
	<circle fill="#1ABC9C" cx="50.583" cy="50" r="42.751"/>
	<g>
		<path fill="#FFFFFF" d="M70.933,56.705c-9.245,11.101-18.841,4.797-21.973,2.213c2.414-2.637,3.522-4.07,7.715-7.525
			c4.333,1.771,12.087-1.591,12.087-1.591c-5.217,1.367-9.204,0.592-10.62,0.217c0.304-0.237,5.45-3.962,7.007-6.117
			c4.309,0.133,7.867-3.567,7.867-3.567c-0.117-0.1-2.295,1.571-6.416,1.771c4.266-6.267,4.075-12.033,4.075-12.033
			s-1.575,5.263-5.583,11.033c-0.821-4.095,0.225-6.883,0.107-6.975c0,0-2.791,4.6-1.505,8.829
			c-2.191,2.504-5.646,4.667-6.921,5.637c-0.099-0.263-1.432-4.633-0.137-11.087c0,0-3.513,8.117-1.312,12.325
			c-2.691,2.072-3.413,2.579-7.908,7.603c-10.179-7.62-1.439-21.25,6.183-24.424c7.843-3.27,11.109-2.611,18.297-14.374
			C79.766,30.297,78.475,47.656,70.933,56.705z"/>
		<path fill="#FFFFFF" d="M27.491,55.521c4.631,2.117,7.841,4.992,10.047,7.742c0.027-0.079,0.062-0.146,0.086-0.236
			C41.815,47.939,18.772,50.04,18.772,50.04s3.184,4.9,4.958,10.242c2.053,6.191,10.439,11.337,13.454,3.982
			C35.007,61.334,31.894,58.131,27.491,55.521z"/>
		<path fill="#FFFFFF" d="M48.96,58.918c-0.027-0.033-1.592-1.434-1.566-1.467c-3.95,4.351-5.49,8.066-5.865,12.805
			c-0.598-1.629-1.793-4.238-3.992-6.992c-0.104,0.363-0.225,0.688-0.354,1c2.342,3.154,3.248,7.451,3.781,8.858
			c0,3.934,0.432,5.899,0.777,9.184c0,0,2.117,1.25,2.706-1.083C43.252,79.247,42.08,65.651,48.96,58.918z"/>
	</g>
</g>
</svg>
