<?xml version="1.0" encoding="utf-8"?>
<!-- Generator: Adobe Illustrator 15.0.0, SVG Export Plug-In . SVG Version: 6.00 Build 0)  -->
<!DOCTYPE svg PUBLIC "-//W3C//DTD SVG 1.1//EN" "http://www.w3.org/Graphics/SVG/1.1/DTD/svg11.dtd">
<svg version="1.1" id="Layer_1" xmlns="http://www.w3.org/2000/svg" xmlns:xlink="http://www.w3.org/1999/xlink" x="0px" y="0px"
	 width="101.167px" height="100px" viewBox="0 0 101.167 100" enable-background="new 0 0 101.167 100" xml:space="preserve">
<g>
	<circle fill="#E74C3C" cx="50.583" cy="50" r="42.752"/>
	<g id="Your_Icon">
		<g id="Ellipse_2_copy_3">
			<g>
				<ellipse fill="#FFFFFF" cx="65.4" cy="22.001" rx="6.299" ry="6.309"/>
			</g>
		</g>
		<g id="Rounded_Rectangle_17">
			<g>
				<path fill="#FFFFFF" d="M70.662,36.243l-8.068-7.076c-1.082-0.947-2.725-0.84-3.672,0.24c-0.947,1.081-0.842,2.725,0.24,3.672
					l8.068,7.076c1.082,0.947,2.725,0.839,3.672-0.241C71.851,38.835,71.742,37.191,70.662,36.243z"/>
			</g>
		</g>
		<g id="Rounded_Rectangle_17_copy_2">
			<g>
				<path fill="#FFFFFF" d="M56.744,26.687l-10.754,0.832c-1.44,0.11-2.519,1.368-2.411,2.809c0.109,1.44,1.364,2.518,2.804,2.407
					l10.754-0.831c1.439-0.111,2.52-1.369,2.41-2.81C59.439,27.653,58.183,26.575,56.744,26.687z"/>
			</g>
		</g>
		<g id="Rounded_Rectangle_17_copy">
			<g>
				<path fill="#FFFFFF" d="M79.076,28.616c-1.031-1-2.68-0.974-3.68,0.058l-7.467,7.707c-1,1.032-0.975,2.679,0.057,3.679
					s2.68,0.974,3.68-0.058l7.468-7.707C80.134,31.264,80.107,29.616,79.076,28.616z"/>
			</g>
		</g>
		<g id="Rounded_Rectangle_17_copy_3">
			<g>
				<path fill="#FFFFFF" d="M47.042,28.454c-1.032-1-2.679-0.974-3.679,0.058l-7.467,7.707c-1,1.032-0.974,2.679,0.058,3.679
					c1.032,1,2.679,0.974,3.679-0.058l7.468-7.708C48.1,31.101,48.075,29.454,47.042,28.454z"/>
			</g>
		</g>
		<g id="Rounded_Rectangle_14_copy">
			<g>
				<path fill="#FFFFFF" d="M61.369,28.211l-1.08-0.65c-2.236-1.347-5.139-0.622-6.482,1.618l-11.19,18.658
					c-1.344,2.239-0.62,5.146,1.616,6.491l1.079,0.65c2.236,1.348,5.138,0.621,6.482-1.617l11.192-18.657
					C64.328,32.464,63.605,29.558,61.369,28.211z"/>
			</g>
		</g>
		<g id="Rounded_Rectangle_15">
			<g>
				<path fill="#FFFFFF" d="M60.637,58.4l-9.606-9.781c-1.586-1.615-4.178-1.637-5.79-0.048c-1.611,1.588-1.633,4.185-0.047,5.799
					l9.606,9.782c1.584,1.615,4.177,1.636,5.787,0.047C62.2,62.612,62.222,60.014,60.637,58.4z"/>
			</g>
		</g>
		<g id="Rounded_Rectangle_15_copy">
			<g>
				<path fill="#FFFFFF" d="M49.383,44.858c-1.891-1.242-4.416-0.706-5.639,1.196l-7.414,11.529
					c-1.223,1.904-0.683,4.453,1.208,5.695c1.891,1.242,4.416,0.705,5.639-1.198l7.414-11.528
					C51.814,48.649,51.274,46.1,49.383,44.858z"/>
			</g>
		</g>
		<g id="Rounded_Rectangle_16">
			<g>
				<path fill="#FFFFFF" d="M58.472,58.334c-1.959-0.373-3.816,1.105-4.15,3.298l-2.727,17.969
					c-0.334,2.195,0.983,4.277,2.941,4.649c1.959,0.373,3.816-1.104,4.15-3.297l2.727-17.969
					C61.747,60.789,60.429,58.707,58.472,58.334z"/>
			</g>
		</g>
		<g id="Rounded_Rectangle_16_copy">
			<g>
				<path fill="#FFFFFF" d="M39.402,58.4l-17.8-3.276c-2.174-0.399-4.312,0.726-4.774,2.515c-0.462,1.79,0.925,3.564,3.099,3.966
					l17.8,3.276c2.174,0.4,4.312-0.726,4.774-2.516C42.963,60.574,41.576,58.801,39.402,58.4z"/>
			</g>
		</g>
	</g>
</g>
</svg>
