<?xml version="1.0" encoding="utf-8"?>
<!-- Generator: Adobe Illustrator 15.0.0, SVG Export Plug-In . SVG Version: 6.00 Build 0)  -->
<!DOCTYPE svg PUBLIC "-//W3C//DTD SVG 1.1//EN" "http://www.w3.org/Graphics/SVG/1.1/DTD/svg11.dtd">
<svg version="1.1" id="Layer_1" xmlns="http://www.w3.org/2000/svg" xmlns:xlink="http://www.w3.org/1999/xlink" x="0px" y="0px"
	 width="91.333px" height="100px" viewBox="0 0 91.333 100" enable-background="new 0 0 91.333 100" xml:space="preserve">
<circle cx="-472.334" cy="-160" r="53.44"/>
<circle cx="-322.334" cy="-160" r="53.44"/>
<circle cx="-172.334" cy="-160" r="53.44"/>
<g>
	<path fill="#FFFFFF" d="M-446.896-151.618c-11.557,13.875-23.552,5.995-27.466,2.766c3.017-3.297,4.403-5.088,9.643-9.406
		c5.417,2.214,15.109-1.989,15.109-1.989c-6.521,1.709-11.505,0.74-13.276,0.271c0.38-0.297,6.812-4.953,8.759-7.646
		c5.385,0.167,9.833-4.458,9.833-4.458c-0.146-0.125-2.869,1.963-8.02,2.214c5.333-7.834,5.094-15.042,5.094-15.042
		s-1.969,6.578-6.979,13.791c-1.026-5.119,0.281-8.604,0.134-8.718c0,0-3.489,5.75-1.88,11.036c-2.739,3.13-7.057,5.833-8.651,7.046
		c-0.124-0.328-1.791-5.791-0.172-13.859c0,0-4.391,10.146-1.641,15.406c-3.364,2.589-4.266,3.223-9.885,9.504
		c-12.724-9.526-1.799-26.562,7.729-30.531c9.803-4.087,13.886-3.264,22.871-17.967
		C-435.855-184.628-437.468-162.93-446.896-151.618z"/>
	<path fill="#FFFFFF" d="M-501.2-153.097c5.789,2.646,9.802,6.24,12.559,9.678c0.034-0.1,0.076-0.183,0.107-0.297
		c5.239-18.859-23.565-16.234-23.565-16.234s3.979,6.125,6.198,12.802c2.565,7.74,13.049,14.172,16.817,4.979
		C-491.804-145.832-495.695-149.836-501.2-153.097z"/>
	<path fill="#FFFFFF" d="M-474.362-148.852c-0.034-0.042-1.99-1.792-1.958-1.833c-4.938,5.438-6.863,10.083-7.332,16.005
		c-0.747-2.036-2.242-5.297-4.99-8.739c-0.13,0.453-0.282,0.859-0.442,1.25c2.927,3.942,4.06,9.313,4.726,11.073
		c0,4.917,0.54,7.375,0.971,11.479c0,0,2.646,1.562,3.383-1.354C-481.498-123.441-482.964-140.436-474.362-148.852z"/>
</g>
<g id="Your_Icon">
	<g id="Ellipse_2_copy_3">
		<g>
			<ellipse fill="#FFFFFF" cx="-303.812" cy="-194.999" rx="7.872" ry="7.886"/>
		</g>
	</g>
	<g id="Rounded_Rectangle_17">
		<g>
			<path fill="#FFFFFF" d="M-297.236-177.196l-10.086-8.845c-1.352-1.185-3.404-1.05-4.59,0.3c-1.184,1.351-1.051,3.405,0.301,4.589
				l10.086,8.845c1.352,1.185,3.406,1.049,4.59-0.301C-295.75-173.957-295.885-176.011-297.236-177.196z"/>
		</g>
	</g>
	<g id="Rounded_Rectangle_17_copy_2">
		<g>
			<path fill="#FFFFFF" d="M-314.633-189.142l-13.443,1.039c-1.8,0.139-3.149,1.711-3.013,3.512c0.136,1.8,1.705,3.147,3.504,3.009
				l13.443-1.039c1.8-0.14,3.148-1.711,3.013-3.512C-311.264-187.934-312.833-189.281-314.633-189.142z"/>
		</g>
	</g>
	<g id="Rounded_Rectangle_17_copy">
		<g>
			<path fill="#FFFFFF" d="M-286.718-186.729c-1.289-1.25-3.35-1.217-4.6,0.072l-9.334,9.634c-1.25,1.29-1.217,3.348,0.072,4.598
				s3.349,1.217,4.599-0.072l9.335-9.634C-285.395-183.421-285.428-185.479-286.718-186.729z"/>
		</g>
	</g>
	<g id="Rounded_Rectangle_17_copy_3">
		<g>
			<path fill="#FFFFFF" d="M-326.759-186.933c-1.29-1.25-3.349-1.217-4.599,0.072l-9.334,9.634c-1.25,1.29-1.218,3.348,0.072,4.598
				s3.349,1.217,4.599-0.072l9.335-9.634C-325.437-183.624-325.469-185.683-326.759-186.933z"/>
		</g>
	</g>
	<g id="Rounded_Rectangle_14_copy">
		<g>
			<path fill="#FFFFFF" d="M-308.852-187.237l-1.351-0.813c-2.795-1.683-6.422-0.777-8.102,2.023l-13.989,23.322
				c-1.68,2.8-0.775,6.434,2.02,8.116l1.349,0.812c2.795,1.685,6.423,0.777,8.103-2.021l13.99-23.321
				C-305.154-181.92-306.057-185.554-308.852-187.237z"/>
		</g>
	</g>
	<g id="Rounded_Rectangle_15">
		<g>
			<path fill="#FFFFFF" d="M-309.766-149.499l-12.009-12.228c-1.981-2.019-5.221-2.045-7.236-0.06
				c-2.014,1.985-2.041,5.232-0.059,7.25l12.008,12.229c1.98,2.019,5.221,2.044,7.234,0.059
				C-307.813-144.234-307.785-147.482-309.766-149.499z"/>
		</g>
	</g>
	<g id="Rounded_Rectangle_15_copy">
		<g>
			<path fill="#FFFFFF" d="M-323.833-166.428c-2.364-1.552-5.52-0.882-7.049,1.496l-9.267,14.412
				c-1.529,2.38-0.854,5.566,1.51,7.119c2.363,1.552,5.519,0.882,7.048-1.498l9.268-14.411
				C-320.795-161.689-321.47-164.876-323.833-166.428z"/>
		</g>
	</g>
	<g id="Rounded_Rectangle_16">
		<g>
			<path fill="#FFFFFF" d="M-312.473-149.582c-2.448-0.467-4.771,1.381-5.187,4.122l-3.408,22.461
				c-0.418,2.744,1.229,5.347,3.677,5.812s4.771-1.38,5.187-4.122l3.409-22.461C-308.379-146.513-310.027-149.115-312.473-149.582z"
				/>
		</g>
	</g>
	<g id="Rounded_Rectangle_16_copy">
		<g>
			<path fill="#FFFFFF" d="M-336.31-149.499l-22.25-4.096c-2.717-0.5-5.389,0.907-5.967,3.144c-0.578,2.237,1.156,4.455,3.874,4.957
				l22.25,4.096c2.717,0.5,5.39-0.907,5.968-3.145C-331.858-146.781-333.593-148.998-336.31-149.499z"/>
		</g>
	</g>
</g>
<text transform="matrix(1 0 0 1 -196.8335 -130.3843)" fill="#FFFFFF" font-family="'MyriadPro-BoldIt'" font-size="96">$</text>
</svg>
