<svg xmlns:dc="http://purl.org/dc/elements/1.1/" xmlns:cc="http://creativecommons.org/ns#" xmlns:rdf="http://www.w3.org/1999/02/22-rdf-syntax-ns#" xmlns:svg="http://www.w3.org/2000/svg" xmlns="http://www.w3.org/2000/svg" version="1.1" width="100.0px" height="100px" viewBox="0 0 2.2222222 2.2222222" id="svg2999" xml:space="preserve" style="fill-rule:evenodd"><metadata id="metadata3011"><rdf:RDF><cc:Work rdf:about=""><dc:format>image/svg+xml</dc:format><dc:type rdf:resource="http://purl.org/dc/dcmitype/StillImage"/><dc:title/></cc:Work></rdf:RDF></metadata>
 <defs id="defs3001">
  <style type="text/css" id="style3003"/>
 </defs>
 <g transform="matrix(0.78827976,0,0,0.78827976,-0.07268745,-0.17175938)" id="Layer_x0020_1">
  <metadata id="CorelCorpID_0Corel-Layer"/>
  <path d="M 1.50464,1.07806 1.361357,0.952265 1.077196,1.27593 C 1.016692,1.344843 0.910818,1.351725 0.841905,1.291221 l 0,0 C 0.7729916,1.2307213 0.7661137,1.1248393 0.8266137,1.0559303 l 0.394177,-0.448972 c 0.0605,-0.0689134 0.166382,-0.0757913 0.235291,-0.0152913 l 0,0 0.759106,0.667028 0.284165,-0.323665 c 0.0605,-0.0689094 0.166382,-0.0757953 0.235291,-0.0152953 l 0,0 c 0.068909,0.0605 0.075791,0.166382 0.015295,0.235299 L 2.355758,1.6040027 C 2.2952619,1.6729161 2.189376,1.679798 2.120467,1.619294 l 0,0 -0.00105,-9.488e-4 -0.232295,-0.203945 -0.282232,0.379673 0.16465,0.122358 1.18e-5,1.18e-5 c 0.073571,0.073567 0.101039,0.181173 0.038968,0.264681 l -0.404433,0.544067 c -0.062075,0.083504 -0.181177,0.101043 -0.264681,0.038965 l -1.18e-5,-3.9e-6 C 1.055886,2.7020811 1.038355,2.5829751 1.100426,2.4994711 L 1.391977,2.1072581 1.273816,2.0194191 0.57400502,2.9608521 c -0.0620748,0.0835 -0.181185,0.101039 -0.264693,0.038969 l 0,0 c -0.0835,-0.062075 -0.101114,-0.181248 -0.0389606,-0.264693 L 1.5046402,1.0780576 z M 2.342467,0.304032 C 2.50551,0.425233 2.539436,0.655658 2.4182387,0.818709 2.2970377,0.981752 2.0666087,1.015678 1.9035657,0.8944767 1.7405147,0.7732797 1.7065937,0.5428507 1.827794,0.3797997 1.948995,0.2167567 2.179416,0.1828347 2.342467,0.304032 z" id="path3007" style="fill:#000000"/>
 </g>
</svg>